<mxfile host="app.diagrams.net" modified="2024-02-23T20:35:08.634Z" agent="Mozilla/5.0 (X11; Linux x86_64) AppleWebKit/537.36 (KHTML, like Gecko) Chrome/122.0.0.0 Safari/537.36" etag="t35Z-9ZtWxYkcnL7qhND" version="23.1.6" type="google">
  <diagram name="Page-1" id="2YBvvXClWsGukQMizWep">
    <mxGraphModel grid="1" page="1" gridSize="10" guides="1" tooltips="1" connect="1" arrows="1" fold="1" pageScale="1" pageWidth="850" pageHeight="1100" math="0" shadow="0">
      <root>
        <mxCell id="0" />
        <mxCell id="1" parent="0" />
        <mxCell id="aM9ryv3xv72pqoxQDRHE-1" value="Supervisor" style="shape=umlLifeline;perimeter=lifelinePerimeter;whiteSpace=wrap;html=1;container=0;dropTarget=0;collapsible=0;recursiveResize=0;outlineConnect=0;portConstraint=eastwest;newEdgeStyle={&quot;edgeStyle&quot;:&quot;elbowEdgeStyle&quot;,&quot;elbow&quot;:&quot;vertical&quot;,&quot;curved&quot;:0,&quot;rounded&quot;:0};" vertex="1" parent="1">
          <mxGeometry x="40" y="80" width="100" height="290" as="geometry" />
        </mxCell>
        <mxCell id="aM9ryv3xv72pqoxQDRHE-2" value="" style="html=1;points=[];perimeter=orthogonalPerimeter;outlineConnect=0;targetShapes=umlLifeline;portConstraint=eastwest;newEdgeStyle={&quot;edgeStyle&quot;:&quot;elbowEdgeStyle&quot;,&quot;elbow&quot;:&quot;vertical&quot;,&quot;curved&quot;:0,&quot;rounded&quot;:0};" vertex="1" parent="aM9ryv3xv72pqoxQDRHE-1">
          <mxGeometry x="45" y="60" width="10" height="200" as="geometry" />
        </mxCell>
        <mxCell id="aM9ryv3xv72pqoxQDRHE-9" value="Display form to fill field worker details" style="html=1;verticalAlign=bottom;endArrow=block;edgeStyle=elbowEdgeStyle;elbow=vertical;curved=0;rounded=0;" edge="1" parent="1">
          <mxGeometry relative="1" as="geometry">
            <mxPoint x="365" y="184" as="sourcePoint" />
            <Array as="points">
              <mxPoint x="195" y="184" />
            </Array>
            <mxPoint x="95" y="184" as="targetPoint" />
          </mxGeometry>
        </mxCell>
        <mxCell id="3TfImKGSXlmtxX9PqDof-1" value="System" style="shape=umlLifeline;perimeter=lifelinePerimeter;whiteSpace=wrap;html=1;container=0;dropTarget=0;collapsible=0;recursiveResize=0;outlineConnect=0;portConstraint=eastwest;newEdgeStyle={&quot;edgeStyle&quot;:&quot;elbowEdgeStyle&quot;,&quot;elbow&quot;:&quot;vertical&quot;,&quot;curved&quot;:0,&quot;rounded&quot;:0};" vertex="1" parent="1">
          <mxGeometry x="320" y="80" width="100" height="290" as="geometry" />
        </mxCell>
        <mxCell id="3TfImKGSXlmtxX9PqDof-2" value="" style="html=1;points=[];perimeter=orthogonalPerimeter;outlineConnect=0;targetShapes=umlLifeline;portConstraint=eastwest;newEdgeStyle={&quot;edgeStyle&quot;:&quot;elbowEdgeStyle&quot;,&quot;elbow&quot;:&quot;vertical&quot;,&quot;curved&quot;:0,&quot;rounded&quot;:0};" vertex="1" parent="3TfImKGSXlmtxX9PqDof-1">
          <mxGeometry x="45" y="75" width="10" height="120" as="geometry" />
        </mxCell>
        <mxCell id="FVAUcPu6tMOFsZ8LC1SO-1" value="Validate details" style="html=1;verticalAlign=bottom;endArrow=block;curved=0;rounded=0;exitX=1.003;exitY=0.491;exitDx=0;exitDy=0;exitPerimeter=0;" edge="1" parent="3TfImKGSXlmtxX9PqDof-1" source="3TfImKGSXlmtxX9PqDof-2" target="3TfImKGSXlmtxX9PqDof-2">
          <mxGeometry width="80" relative="1" as="geometry">
            <mxPoint x="30" y="150" as="sourcePoint" />
            <mxPoint x="110" y="150" as="targetPoint" />
          </mxGeometry>
        </mxCell>
        <mxCell id="3TfImKGSXlmtxX9PqDof-3" value="Database" style="shape=umlLifeline;perimeter=lifelinePerimeter;whiteSpace=wrap;html=1;container=0;dropTarget=0;collapsible=0;recursiveResize=0;outlineConnect=0;portConstraint=eastwest;newEdgeStyle={&quot;edgeStyle&quot;:&quot;elbowEdgeStyle&quot;,&quot;elbow&quot;:&quot;vertical&quot;,&quot;curved&quot;:0,&quot;rounded&quot;:0};" vertex="1" parent="1">
          <mxGeometry x="660" y="80" width="100" height="290" as="geometry" />
        </mxCell>
        <mxCell id="FVAUcPu6tMOFsZ8LC1SO-7" value="" style="html=1;points=[[0,0,0,0,5],[0,1,0,0,-5],[1,0,0,0,5],[1,1,0,0,-5]];perimeter=orthogonalPerimeter;outlineConnect=0;targetShapes=umlLifeline;portConstraint=eastwest;newEdgeStyle={&quot;curved&quot;:0,&quot;rounded&quot;:0};" vertex="1" parent="3TfImKGSXlmtxX9PqDof-3">
          <mxGeometry x="45" y="220" width="10" height="30" as="geometry" />
        </mxCell>
        <mxCell id="3TfImKGSXlmtxX9PqDof-5" value="Enter field worker details and submit form" style="html=1;verticalAlign=bottom;endArrow=block;edgeStyle=elbowEdgeStyle;elbow=vertical;curved=0;rounded=0;" edge="1" parent="1">
          <mxGeometry relative="1" as="geometry">
            <mxPoint x="95" y="215" as="sourcePoint" />
            <Array as="points">
              <mxPoint x="175" y="215" />
            </Array>
            <mxPoint x="365" y="215" as="targetPoint" />
          </mxGeometry>
        </mxCell>
        <mxCell id="3TfImKGSXlmtxX9PqDof-61" value="Add Field Worker:" style="text;html=1;align=center;verticalAlign=middle;resizable=0;points=[];autosize=1;strokeColor=none;fillColor=none;" vertex="1" parent="1">
          <mxGeometry x="30" y="20" width="120" height="30" as="geometry" />
        </mxCell>
        <mxCell id="3TfImKGSXlmtxX9PqDof-62" value="Remove Field Worker:" style="text;html=1;align=center;verticalAlign=middle;resizable=0;points=[];autosize=1;strokeColor=none;fillColor=none;" vertex="1" parent="1">
          <mxGeometry x="40" y="440" width="140" height="30" as="geometry" />
        </mxCell>
        <mxCell id="3TfImKGSXlmtxX9PqDof-63" value="Add a New Doctor:" style="text;html=1;align=center;verticalAlign=middle;resizable=0;points=[];autosize=1;strokeColor=none;fillColor=none;" vertex="1" parent="1">
          <mxGeometry x="40" y="800" width="120" height="30" as="geometry" />
        </mxCell>
        <mxCell id="3TfImKGSXlmtxX9PqDof-65" value="Supervisor" style="shape=umlLifeline;perimeter=lifelinePerimeter;whiteSpace=wrap;html=1;container=0;dropTarget=0;collapsible=0;recursiveResize=0;outlineConnect=0;portConstraint=eastwest;newEdgeStyle={&quot;edgeStyle&quot;:&quot;elbowEdgeStyle&quot;,&quot;elbow&quot;:&quot;vertical&quot;,&quot;curved&quot;:0,&quot;rounded&quot;:0};" vertex="1" parent="1">
          <mxGeometry x="50" y="1240" width="100" height="200" as="geometry" />
        </mxCell>
        <mxCell id="FVAUcPu6tMOFsZ8LC1SO-51" value="" style="html=1;points=[[0,0,0,0,5],[0,1,0,0,-5],[1,0,0,0,5],[1,1,0,0,-5]];perimeter=orthogonalPerimeter;outlineConnect=0;targetShapes=umlLifeline;portConstraint=eastwest;newEdgeStyle={&quot;curved&quot;:0,&quot;rounded&quot;:0};" vertex="1" parent="3TfImKGSXlmtxX9PqDof-65">
          <mxGeometry x="45" y="80" width="10" height="50" as="geometry" />
        </mxCell>
        <mxCell id="3TfImKGSXlmtxX9PqDof-72" value="System" style="shape=umlLifeline;perimeter=lifelinePerimeter;whiteSpace=wrap;html=1;container=0;dropTarget=0;collapsible=0;recursiveResize=0;outlineConnect=0;portConstraint=eastwest;newEdgeStyle={&quot;edgeStyle&quot;:&quot;elbowEdgeStyle&quot;,&quot;elbow&quot;:&quot;vertical&quot;,&quot;curved&quot;:0,&quot;rounded&quot;:0};" vertex="1" parent="1">
          <mxGeometry x="335" y="1240" width="100" height="200" as="geometry" />
        </mxCell>
        <mxCell id="FVAUcPu6tMOFsZ8LC1SO-49" value="" style="html=1;points=[[0,0,0,0,5],[0,1,0,0,-5],[1,0,0,0,5],[1,1,0,0,-5]];perimeter=orthogonalPerimeter;outlineConnect=0;targetShapes=umlLifeline;portConstraint=eastwest;newEdgeStyle={&quot;curved&quot;:0,&quot;rounded&quot;:0};" vertex="1" parent="3TfImKGSXlmtxX9PqDof-72">
          <mxGeometry x="45" y="70" width="10" height="80" as="geometry" />
        </mxCell>
        <mxCell id="3TfImKGSXlmtxX9PqDof-74" value="Database" style="shape=umlLifeline;perimeter=lifelinePerimeter;whiteSpace=wrap;html=1;container=0;dropTarget=0;collapsible=0;recursiveResize=0;outlineConnect=0;portConstraint=eastwest;newEdgeStyle={&quot;edgeStyle&quot;:&quot;elbowEdgeStyle&quot;,&quot;elbow&quot;:&quot;vertical&quot;,&quot;curved&quot;:0,&quot;rounded&quot;:0};" vertex="1" parent="1">
          <mxGeometry x="610" y="1240" width="100" height="200" as="geometry" />
        </mxCell>
        <mxCell id="FJwgyJ5oNYmO2vJTQ5nv-1" value="" style="html=1;points=[[0,0,0,0,5],[0,1,0,0,-5],[1,0,0,0,5],[1,1,0,0,-5]];perimeter=orthogonalPerimeter;outlineConnect=0;targetShapes=umlLifeline;portConstraint=eastwest;newEdgeStyle={&quot;curved&quot;:0,&quot;rounded&quot;:0};" vertex="1" parent="3TfImKGSXlmtxX9PqDof-74">
          <mxGeometry x="45" y="120" width="10" height="50" as="geometry" />
        </mxCell>
        <mxCell id="3TfImKGSXlmtxX9PqDof-81" value="Search and Assign Field Worker:" style="text;html=1;align=center;verticalAlign=middle;resizable=0;points=[];autosize=1;strokeColor=none;fillColor=none;" vertex="1" parent="1">
          <mxGeometry x="35" y="1190" width="200" height="30" as="geometry" />
        </mxCell>
        <mxCell id="FVAUcPu6tMOFsZ8LC1SO-2" value="Create Field &lt;br&gt;Worker Entity" style="html=1;verticalAlign=bottom;endArrow=block;curved=0;rounded=0;" edge="1" parent="1">
          <mxGeometry width="80" relative="1" as="geometry">
            <mxPoint x="375" y="250" as="sourcePoint" />
            <mxPoint x="490" y="250" as="targetPoint" />
          </mxGeometry>
        </mxCell>
        <mxCell id="FVAUcPu6tMOFsZ8LC1SO-4" value="Field Worker" style="shape=umlLifeline;perimeter=lifelinePerimeter;whiteSpace=wrap;html=1;container=1;dropTarget=0;collapsible=0;recursiveResize=0;outlineConnect=0;portConstraint=eastwest;newEdgeStyle={&quot;curved&quot;:0,&quot;rounded&quot;:0};" vertex="1" parent="1">
          <mxGeometry x="490" y="230" width="100" height="140" as="geometry" />
        </mxCell>
        <mxCell id="FVAUcPu6tMOFsZ8LC1SO-5" value="" style="html=1;points=[];perimeter=orthogonalPerimeter;outlineConnect=0;targetShapes=umlLifeline;portConstraint=eastwest;newEdgeStyle={&quot;edgeStyle&quot;:&quot;elbowEdgeStyle&quot;,&quot;elbow&quot;:&quot;vertical&quot;,&quot;curved&quot;:0,&quot;rounded&quot;:0};" vertex="1" parent="FVAUcPu6tMOFsZ8LC1SO-4">
          <mxGeometry x="45" y="60" width="10" height="40" as="geometry" />
        </mxCell>
        <mxCell id="FVAUcPu6tMOFsZ8LC1SO-6" value="Save field worker details" style="html=1;verticalAlign=bottom;endArrow=block;curved=0;rounded=0;" edge="1" parent="1" target="FVAUcPu6tMOFsZ8LC1SO-7">
          <mxGeometry width="80" relative="1" as="geometry">
            <mxPoint x="545" y="300" as="sourcePoint" />
            <mxPoint x="660" y="300" as="targetPoint" />
          </mxGeometry>
        </mxCell>
        <mxCell id="FVAUcPu6tMOFsZ8LC1SO-8" value="Supervisor" style="shape=umlLifeline;perimeter=lifelinePerimeter;whiteSpace=wrap;html=1;container=0;dropTarget=0;collapsible=0;recursiveResize=0;outlineConnect=0;portConstraint=eastwest;newEdgeStyle={&quot;edgeStyle&quot;:&quot;elbowEdgeStyle&quot;,&quot;elbow&quot;:&quot;vertical&quot;,&quot;curved&quot;:0,&quot;rounded&quot;:0};" vertex="1" parent="1">
          <mxGeometry x="50" y="480" width="100" height="270" as="geometry" />
        </mxCell>
        <mxCell id="FVAUcPu6tMOFsZ8LC1SO-9" value="" style="html=1;points=[];perimeter=orthogonalPerimeter;outlineConnect=0;targetShapes=umlLifeline;portConstraint=eastwest;newEdgeStyle={&quot;edgeStyle&quot;:&quot;elbowEdgeStyle&quot;,&quot;elbow&quot;:&quot;vertical&quot;,&quot;curved&quot;:0,&quot;rounded&quot;:0};" vertex="1" parent="FVAUcPu6tMOFsZ8LC1SO-8">
          <mxGeometry x="45" y="70" width="10" height="60" as="geometry" />
        </mxCell>
        <mxCell id="FVAUcPu6tMOFsZ8LC1SO-11" value="System" style="shape=umlLifeline;perimeter=lifelinePerimeter;whiteSpace=wrap;html=1;container=0;dropTarget=0;collapsible=0;recursiveResize=0;outlineConnect=0;portConstraint=eastwest;newEdgeStyle={&quot;edgeStyle&quot;:&quot;elbowEdgeStyle&quot;,&quot;elbow&quot;:&quot;vertical&quot;,&quot;curved&quot;:0,&quot;rounded&quot;:0};" vertex="1" parent="1">
          <mxGeometry x="330" y="480" width="100" height="270" as="geometry" />
        </mxCell>
        <mxCell id="FVAUcPu6tMOFsZ8LC1SO-12" value="" style="html=1;points=[];perimeter=orthogonalPerimeter;outlineConnect=0;targetShapes=umlLifeline;portConstraint=eastwest;newEdgeStyle={&quot;edgeStyle&quot;:&quot;elbowEdgeStyle&quot;,&quot;elbow&quot;:&quot;vertical&quot;,&quot;curved&quot;:0,&quot;rounded&quot;:0};" vertex="1" parent="FVAUcPu6tMOFsZ8LC1SO-11">
          <mxGeometry x="45" y="78" width="10" height="90" as="geometry" />
        </mxCell>
        <mxCell id="FVAUcPu6tMOFsZ8LC1SO-14" value="Database" style="shape=umlLifeline;perimeter=lifelinePerimeter;whiteSpace=wrap;html=1;container=0;dropTarget=0;collapsible=0;recursiveResize=0;outlineConnect=0;portConstraint=eastwest;newEdgeStyle={&quot;edgeStyle&quot;:&quot;elbowEdgeStyle&quot;,&quot;elbow&quot;:&quot;vertical&quot;,&quot;curved&quot;:0,&quot;rounded&quot;:0};" vertex="1" parent="1">
          <mxGeometry x="670" y="480" width="100" height="270" as="geometry" />
        </mxCell>
        <mxCell id="FVAUcPu6tMOFsZ8LC1SO-15" value="" style="html=1;points=[[0,0,0,0,5],[0,1,0,0,-5],[1,0,0,0,5],[1,1,0,0,-5]];perimeter=orthogonalPerimeter;outlineConnect=0;targetShapes=umlLifeline;portConstraint=eastwest;newEdgeStyle={&quot;curved&quot;:0,&quot;rounded&quot;:0};" vertex="1" parent="FVAUcPu6tMOFsZ8LC1SO-14">
          <mxGeometry x="45" y="104" width="10" height="70" as="geometry" />
        </mxCell>
        <mxCell id="FVAUcPu6tMOFsZ8LC1SO-16" value="Select field worker to delete" style="html=1;verticalAlign=bottom;endArrow=block;edgeStyle=elbowEdgeStyle;elbow=vertical;curved=0;rounded=0;" edge="1" parent="1">
          <mxGeometry relative="1" as="geometry">
            <mxPoint x="105" y="561" as="sourcePoint" />
            <Array as="points">
              <mxPoint x="185" y="561" />
            </Array>
            <mxPoint x="375" y="561" as="targetPoint" />
          </mxGeometry>
        </mxCell>
        <mxCell id="FVAUcPu6tMOFsZ8LC1SO-18" value="Field Worker" style="shape=umlLifeline;perimeter=lifelinePerimeter;whiteSpace=wrap;html=1;container=1;dropTarget=0;collapsible=0;recursiveResize=0;outlineConnect=0;portConstraint=eastwest;newEdgeStyle={&quot;curved&quot;:0,&quot;rounded&quot;:0};" vertex="1" parent="1">
          <mxGeometry x="500" y="630" width="100" height="40" as="geometry" />
        </mxCell>
        <mxCell id="FVAUcPu6tMOFsZ8LC1SO-22" value="" style="shape=umlDestroy;whiteSpace=wrap;html=1;strokeWidth=3;targetShapes=umlLifeline;" vertex="1" parent="FVAUcPu6tMOFsZ8LC1SO-18">
          <mxGeometry x="16.25" y="-2" width="67.5" height="67.5" as="geometry" />
        </mxCell>
        <mxCell id="FVAUcPu6tMOFsZ8LC1SO-20" value="Send field worker id to be deleted" style="html=1;verticalAlign=bottom;endArrow=block;curved=0;rounded=0;" edge="1" parent="1" source="FVAUcPu6tMOFsZ8LC1SO-12">
          <mxGeometry width="80" relative="1" as="geometry">
            <mxPoint x="390" y="585" as="sourcePoint" />
            <mxPoint x="714.5" y="585" as="targetPoint" />
          </mxGeometry>
        </mxCell>
        <mxCell id="FVAUcPu6tMOFsZ8LC1SO-21" value="" style="html=1;verticalAlign=bottom;endArrow=open;dashed=1;endSize=8;curved=0;rounded=0;entryX=0.997;entryY=0.14;entryDx=0;entryDy=0;entryPerimeter=0;" edge="1" parent="1">
          <mxGeometry relative="1" as="geometry">
            <mxPoint x="715.2999999999997" y="649.9999999999999" as="sourcePoint" />
            <mxPoint x="600" y="649.9999999999999" as="targetPoint" />
          </mxGeometry>
        </mxCell>
        <mxCell id="FVAUcPu6tMOFsZ8LC1SO-23" value="Supervisor" style="shape=umlLifeline;perimeter=lifelinePerimeter;whiteSpace=wrap;html=1;container=0;dropTarget=0;collapsible=0;recursiveResize=0;outlineConnect=0;portConstraint=eastwest;newEdgeStyle={&quot;edgeStyle&quot;:&quot;elbowEdgeStyle&quot;,&quot;elbow&quot;:&quot;vertical&quot;,&quot;curved&quot;:0,&quot;rounded&quot;:0};" vertex="1" parent="1">
          <mxGeometry x="40" y="841" width="100" height="290" as="geometry" />
        </mxCell>
        <mxCell id="FVAUcPu6tMOFsZ8LC1SO-24" value="" style="html=1;points=[];perimeter=orthogonalPerimeter;outlineConnect=0;targetShapes=umlLifeline;portConstraint=eastwest;newEdgeStyle={&quot;edgeStyle&quot;:&quot;elbowEdgeStyle&quot;,&quot;elbow&quot;:&quot;vertical&quot;,&quot;curved&quot;:0,&quot;rounded&quot;:0};" vertex="1" parent="FVAUcPu6tMOFsZ8LC1SO-23">
          <mxGeometry x="45" y="59" width="10" height="200" as="geometry" />
        </mxCell>
        <mxCell id="FVAUcPu6tMOFsZ8LC1SO-25" value="Display form to fill doctor details" style="html=1;verticalAlign=bottom;endArrow=block;edgeStyle=elbowEdgeStyle;elbow=vertical;curved=0;rounded=0;" edge="1" parent="1">
          <mxGeometry relative="1" as="geometry">
            <mxPoint x="365" y="941" as="sourcePoint" />
            <Array as="points">
              <mxPoint x="195" y="941" />
            </Array>
            <mxPoint x="95" y="941" as="targetPoint" />
          </mxGeometry>
        </mxCell>
        <mxCell id="FVAUcPu6tMOFsZ8LC1SO-26" value="System" style="shape=umlLifeline;perimeter=lifelinePerimeter;whiteSpace=wrap;html=1;container=0;dropTarget=0;collapsible=0;recursiveResize=0;outlineConnect=0;portConstraint=eastwest;newEdgeStyle={&quot;edgeStyle&quot;:&quot;elbowEdgeStyle&quot;,&quot;elbow&quot;:&quot;vertical&quot;,&quot;curved&quot;:0,&quot;rounded&quot;:0};" vertex="1" parent="1">
          <mxGeometry x="320" y="840" width="100" height="290" as="geometry" />
        </mxCell>
        <mxCell id="FVAUcPu6tMOFsZ8LC1SO-27" value="" style="html=1;points=[];perimeter=orthogonalPerimeter;outlineConnect=0;targetShapes=umlLifeline;portConstraint=eastwest;newEdgeStyle={&quot;edgeStyle&quot;:&quot;elbowEdgeStyle&quot;,&quot;elbow&quot;:&quot;vertical&quot;,&quot;curved&quot;:0,&quot;rounded&quot;:0};" vertex="1" parent="FVAUcPu6tMOFsZ8LC1SO-26">
          <mxGeometry x="45" y="71" width="10" height="120" as="geometry" />
        </mxCell>
        <mxCell id="FVAUcPu6tMOFsZ8LC1SO-28" value="Validate details" style="html=1;verticalAlign=bottom;endArrow=block;curved=0;rounded=0;exitX=1.003;exitY=0.491;exitDx=0;exitDy=0;exitPerimeter=0;" edge="1" parent="FVAUcPu6tMOFsZ8LC1SO-26" source="FVAUcPu6tMOFsZ8LC1SO-27" target="FVAUcPu6tMOFsZ8LC1SO-27">
          <mxGeometry width="80" relative="1" as="geometry">
            <mxPoint x="30" y="150" as="sourcePoint" />
            <mxPoint x="110" y="150" as="targetPoint" />
          </mxGeometry>
        </mxCell>
        <mxCell id="FVAUcPu6tMOFsZ8LC1SO-29" value="Database" style="shape=umlLifeline;perimeter=lifelinePerimeter;whiteSpace=wrap;html=1;container=0;dropTarget=0;collapsible=0;recursiveResize=0;outlineConnect=0;portConstraint=eastwest;newEdgeStyle={&quot;edgeStyle&quot;:&quot;elbowEdgeStyle&quot;,&quot;elbow&quot;:&quot;vertical&quot;,&quot;curved&quot;:0,&quot;rounded&quot;:0};" vertex="1" parent="1">
          <mxGeometry x="660" y="840" width="100" height="290" as="geometry" />
        </mxCell>
        <mxCell id="FVAUcPu6tMOFsZ8LC1SO-30" value="" style="html=1;points=[[0,0,0,0,5],[0,1,0,0,-5],[1,0,0,0,5],[1,1,0,0,-5]];perimeter=orthogonalPerimeter;outlineConnect=0;targetShapes=umlLifeline;portConstraint=eastwest;newEdgeStyle={&quot;curved&quot;:0,&quot;rounded&quot;:0};" vertex="1" parent="FVAUcPu6tMOFsZ8LC1SO-29">
          <mxGeometry x="45" y="220" width="10" height="30" as="geometry" />
        </mxCell>
        <mxCell id="FVAUcPu6tMOFsZ8LC1SO-31" value="Enter doctor details and submit form" style="html=1;verticalAlign=bottom;endArrow=block;edgeStyle=elbowEdgeStyle;elbow=vertical;curved=0;rounded=0;" edge="1" parent="1">
          <mxGeometry relative="1" as="geometry">
            <mxPoint x="95" y="975" as="sourcePoint" />
            <Array as="points">
              <mxPoint x="175" y="975" />
            </Array>
            <mxPoint x="365" y="975" as="targetPoint" />
          </mxGeometry>
        </mxCell>
        <mxCell id="FVAUcPu6tMOFsZ8LC1SO-33" value="Create Doctor &lt;br&gt;Entity" style="html=1;verticalAlign=bottom;endArrow=block;curved=0;rounded=0;" edge="1" parent="1">
          <mxGeometry width="80" relative="1" as="geometry">
            <mxPoint x="375" y="1010" as="sourcePoint" />
            <mxPoint x="490" y="1010" as="targetPoint" />
          </mxGeometry>
        </mxCell>
        <mxCell id="FVAUcPu6tMOFsZ8LC1SO-34" value="Doctor" style="shape=umlLifeline;perimeter=lifelinePerimeter;whiteSpace=wrap;html=1;container=1;dropTarget=0;collapsible=0;recursiveResize=0;outlineConnect=0;portConstraint=eastwest;newEdgeStyle={&quot;curved&quot;:0,&quot;rounded&quot;:0};" vertex="1" parent="1">
          <mxGeometry x="490" y="990" width="100" height="140" as="geometry" />
        </mxCell>
        <mxCell id="FVAUcPu6tMOFsZ8LC1SO-35" value="" style="html=1;points=[];perimeter=orthogonalPerimeter;outlineConnect=0;targetShapes=umlLifeline;portConstraint=eastwest;newEdgeStyle={&quot;edgeStyle&quot;:&quot;elbowEdgeStyle&quot;,&quot;elbow&quot;:&quot;vertical&quot;,&quot;curved&quot;:0,&quot;rounded&quot;:0};" vertex="1" parent="FVAUcPu6tMOFsZ8LC1SO-34">
          <mxGeometry x="45" y="60" width="10" height="40" as="geometry" />
        </mxCell>
        <mxCell id="FVAUcPu6tMOFsZ8LC1SO-36" value="Save Doctor details" style="html=1;verticalAlign=bottom;endArrow=block;curved=0;rounded=0;" edge="1" parent="1" target="FVAUcPu6tMOFsZ8LC1SO-30">
          <mxGeometry width="80" relative="1" as="geometry">
            <mxPoint x="545" y="1060" as="sourcePoint" />
            <mxPoint x="660" y="1060" as="targetPoint" />
          </mxGeometry>
        </mxCell>
        <mxCell id="FVAUcPu6tMOFsZ8LC1SO-52" value="Initiate assignment request of field worker" style="html=1;verticalAlign=bottom;endArrow=block;curved=0;rounded=0;" edge="1" parent="1">
          <mxGeometry width="80" relative="1" as="geometry">
            <mxPoint x="105" y="1338" as="sourcePoint" />
            <mxPoint x="380" y="1338" as="targetPoint" />
          </mxGeometry>
        </mxCell>
        <mxCell id="FVAUcPu6tMOFsZ8LC1SO-53" value="Update assignment status of that field worker" style="html=1;verticalAlign=bottom;endArrow=block;curved=0;rounded=0;" edge="1" parent="1" target="FJwgyJ5oNYmO2vJTQ5nv-1">
          <mxGeometry width="80" relative="1" as="geometry">
            <mxPoint x="390" y="1360" as="sourcePoint" />
            <mxPoint x="650" y="1360" as="targetPoint" />
          </mxGeometry>
        </mxCell>
        <mxCell id="FJwgyJ5oNYmO2vJTQ5nv-3" value="Supervisor" style="shape=umlLifeline;perimeter=lifelinePerimeter;whiteSpace=wrap;html=1;container=0;dropTarget=0;collapsible=0;recursiveResize=0;outlineConnect=0;portConstraint=eastwest;newEdgeStyle={&quot;edgeStyle&quot;:&quot;elbowEdgeStyle&quot;,&quot;elbow&quot;:&quot;vertical&quot;,&quot;curved&quot;:0,&quot;rounded&quot;:0};" vertex="1" parent="1">
          <mxGeometry x="50" y="1580" width="100" height="280" as="geometry" />
        </mxCell>
        <mxCell id="FJwgyJ5oNYmO2vJTQ5nv-4" value="" style="html=1;points=[[0,0,0,0,5],[0,1,0,0,-5],[1,0,0,0,5],[1,1,0,0,-5]];perimeter=orthogonalPerimeter;outlineConnect=0;targetShapes=umlLifeline;portConstraint=eastwest;newEdgeStyle={&quot;curved&quot;:0,&quot;rounded&quot;:0};" vertex="1" parent="FJwgyJ5oNYmO2vJTQ5nv-3">
          <mxGeometry x="45" y="80" width="10" height="120" as="geometry" />
        </mxCell>
        <mxCell id="FJwgyJ5oNYmO2vJTQ5nv-5" value="System" style="shape=umlLifeline;perimeter=lifelinePerimeter;whiteSpace=wrap;html=1;container=0;dropTarget=0;collapsible=0;recursiveResize=0;outlineConnect=0;portConstraint=eastwest;newEdgeStyle={&quot;edgeStyle&quot;:&quot;elbowEdgeStyle&quot;,&quot;elbow&quot;:&quot;vertical&quot;,&quot;curved&quot;:0,&quot;rounded&quot;:0};" vertex="1" parent="1">
          <mxGeometry x="335" y="1580" width="100" height="280" as="geometry" />
        </mxCell>
        <mxCell id="FJwgyJ5oNYmO2vJTQ5nv-6" value="" style="html=1;points=[[0,0,0,0,5],[0,1,0,0,-5],[1,0,0,0,5],[1,1,0,0,-5]];perimeter=orthogonalPerimeter;outlineConnect=0;targetShapes=umlLifeline;portConstraint=eastwest;newEdgeStyle={&quot;curved&quot;:0,&quot;rounded&quot;:0};" vertex="1" parent="FJwgyJ5oNYmO2vJTQ5nv-5">
          <mxGeometry x="45" y="70" width="10" height="170" as="geometry" />
        </mxCell>
        <mxCell id="FJwgyJ5oNYmO2vJTQ5nv-7" value="Database" style="shape=umlLifeline;perimeter=lifelinePerimeter;whiteSpace=wrap;html=1;container=0;dropTarget=0;collapsible=0;recursiveResize=0;outlineConnect=0;portConstraint=eastwest;newEdgeStyle={&quot;edgeStyle&quot;:&quot;elbowEdgeStyle&quot;,&quot;elbow&quot;:&quot;vertical&quot;,&quot;curved&quot;:0,&quot;rounded&quot;:0};" vertex="1" parent="1">
          <mxGeometry x="610" y="1580" width="100" height="280" as="geometry" />
        </mxCell>
        <mxCell id="FJwgyJ5oNYmO2vJTQ5nv-8" value="" style="html=1;points=[[0,0,0,0,5],[0,1,0,0,-5],[1,0,0,0,5],[1,1,0,0,-5]];perimeter=orthogonalPerimeter;outlineConnect=0;targetShapes=umlLifeline;portConstraint=eastwest;newEdgeStyle={&quot;curved&quot;:0,&quot;rounded&quot;:0};" vertex="1" parent="FJwgyJ5oNYmO2vJTQ5nv-7">
          <mxGeometry x="45" y="120" width="10" height="30" as="geometry" />
        </mxCell>
        <mxCell id="FJwgyJ5oNYmO2vJTQ5nv-17" value="" style="html=1;points=[[0,0,0,0,5],[0,1,0,0,-5],[1,0,0,0,5],[1,1,0,0,-5]];perimeter=orthogonalPerimeter;outlineConnect=0;targetShapes=umlLifeline;portConstraint=eastwest;newEdgeStyle={&quot;curved&quot;:0,&quot;rounded&quot;:0};" vertex="1" parent="FJwgyJ5oNYmO2vJTQ5nv-7">
          <mxGeometry x="45" y="200" width="10" height="30" as="geometry" />
        </mxCell>
        <mxCell id="FJwgyJ5oNYmO2vJTQ5nv-9" value="Reassign field worker:" style="text;html=1;align=center;verticalAlign=middle;resizable=0;points=[];autosize=1;strokeColor=none;fillColor=none;" vertex="1" parent="1">
          <mxGeometry x="40" y="1530" width="140" height="30" as="geometry" />
        </mxCell>
        <mxCell id="FJwgyJ5oNYmO2vJTQ5nv-11" value="Initiate re-assignment request of field worker" style="html=1;verticalAlign=bottom;endArrow=block;curved=0;rounded=0;" edge="1" parent="1">
          <mxGeometry width="80" relative="1" as="geometry">
            <mxPoint x="105" y="1680" as="sourcePoint" />
            <mxPoint x="380" y="1680" as="targetPoint" />
          </mxGeometry>
        </mxCell>
        <mxCell id="FJwgyJ5oNYmO2vJTQ5nv-12" value="Retrieve list of field workers from same taluka" style="html=1;verticalAlign=bottom;endArrow=block;curved=0;rounded=0;" edge="1" parent="1" target="FJwgyJ5oNYmO2vJTQ5nv-8">
          <mxGeometry width="80" relative="1" as="geometry">
            <mxPoint x="390" y="1700" as="sourcePoint" />
            <mxPoint x="650" y="1700" as="targetPoint" />
          </mxGeometry>
        </mxCell>
        <mxCell id="FJwgyJ5oNYmO2vJTQ5nv-13" value="Return list of field workers" style="html=1;verticalAlign=bottom;endArrow=open;dashed=1;endSize=8;curved=0;rounded=0;" edge="1" parent="1">
          <mxGeometry relative="1" as="geometry">
            <mxPoint x="655" y="1720" as="sourcePoint" />
            <mxPoint x="390" y="1720" as="targetPoint" />
          </mxGeometry>
        </mxCell>
        <mxCell id="FJwgyJ5oNYmO2vJTQ5nv-14" value="Display drop down to select field worker" style="html=1;verticalAlign=bottom;endArrow=open;dashed=1;endSize=8;curved=0;rounded=0;" edge="1" parent="1" source="FJwgyJ5oNYmO2vJTQ5nv-6" target="FJwgyJ5oNYmO2vJTQ5nv-4">
          <mxGeometry relative="1" as="geometry">
            <mxPoint x="375" y="1740" as="sourcePoint" />
            <mxPoint x="110" y="1740" as="targetPoint" />
          </mxGeometry>
        </mxCell>
        <mxCell id="FJwgyJ5oNYmO2vJTQ5nv-15" value="Select field worker as substitute" style="html=1;verticalAlign=bottom;endArrow=block;curved=0;rounded=0;entryX=-0.157;entryY=0.648;entryDx=0;entryDy=0;entryPerimeter=0;" edge="1" parent="1" source="FJwgyJ5oNYmO2vJTQ5nv-4" target="FJwgyJ5oNYmO2vJTQ5nv-6">
          <mxGeometry width="80" relative="1" as="geometry">
            <mxPoint x="110" y="1760" as="sourcePoint" />
            <mxPoint x="375" y="1760" as="targetPoint" />
          </mxGeometry>
        </mxCell>
        <mxCell id="FJwgyJ5oNYmO2vJTQ5nv-16" value="Update assignment status of field worker&lt;br&gt;Remove assignment status of current worker" style="html=1;verticalAlign=bottom;endArrow=block;curved=0;rounded=0;" edge="1" parent="1" target="FJwgyJ5oNYmO2vJTQ5nv-17">
          <mxGeometry width="80" relative="1" as="geometry">
            <mxPoint x="387" y="1780" as="sourcePoint" />
            <mxPoint x="650" y="1780" as="targetPoint" />
          </mxGeometry>
        </mxCell>
        <mxCell id="HKYMKe-z0Xd4VwaYJWlv-1" value="Initiate request to add field worker" style="html=1;verticalAlign=bottom;endArrow=block;edgeStyle=elbowEdgeStyle;elbow=vertical;curved=0;rounded=0;" edge="1" parent="1">
          <mxGeometry relative="1" as="geometry">
            <mxPoint x="96" y="155" as="sourcePoint" />
            <Array as="points">
              <mxPoint x="176" y="155" />
            </Array>
            <mxPoint x="366" y="155" as="targetPoint" />
          </mxGeometry>
        </mxCell>
        <mxCell id="HKYMKe-z0Xd4VwaYJWlv-2" value="Initiate request to add field worker" style="html=1;verticalAlign=bottom;endArrow=block;edgeStyle=elbowEdgeStyle;elbow=vertical;curved=0;rounded=0;" edge="1" parent="1">
          <mxGeometry relative="1" as="geometry">
            <mxPoint x="95" y="911" as="sourcePoint" />
            <Array as="points">
              <mxPoint x="175" y="911" />
            </Array>
            <mxPoint x="365" y="911" as="targetPoint" />
          </mxGeometry>
        </mxCell>
      </root>
    </mxGraphModel>
  </diagram>
</mxfile>
